<?xml version="1.0" encoding="UTF-8"?>
<svg width="912px" height="268px" viewBox="0 0 912 268" version="1.1" xmlns="http://www.w3.org/2000/svg" xmlns:xlink="http://www.w3.org/1999/xlink">
    <!-- Generator: Sketch 51.3 (57544) - http://www.bohemiancoding.com/sketch -->
    <title>Group 21</title>
    <desc>Created with Sketch.</desc>
    <defs></defs>
    <g id="Page-1" stroke="none" stroke-width="1" fill="none" fill-rule="evenodd">
        <g id="Group-21" fill="#555554">
            <path d="M517.0311,202.6164 L548.3901,202.6164 L548.3901,129.8994 C548.3901,88.5464 532.0391,70.9024 493.7131,70.9024 C480.6811,70.9024 468.8301,74.0044 459.4431,79.8704 L457.9141,80.8274 L457.9141,17.9954 L426.5551,17.9954 L426.5551,202.6164 L457.9141,202.6164 L457.9141,126.7494 C457.9141,100.9094 480.7221,98.9014 487.7131,98.9014 C506.8921,98.9014 517.0311,109.6204 517.0311,129.8994 L517.0311,202.6164 Z" id="Fill-1"></path>
            <polygon id="Fill-3" points="233.749 202.352 266.317 202.352 266.317 70.424 233.749 70.424"></polygon>
            <path d="M892.5214,162.1362 L891.8134,162.8622 C881.1884,173.7662 870.9644,178.6292 858.6604,178.6292 C836.9624,178.6292 820.6014,161.0992 820.6014,137.8512 L820.6014,137.3552 C820.6014,114.6262 836.7754,96.8242 857.4244,96.8242 C872.9944,96.8242 882.4354,104.5172 890.3194,112.8292 L891.0554,113.6052 L911.2204,92.1102 L910.5824,91.4222 C895.9694,75.6362 879.6514,68.5952 857.6714,68.5952 C818.9754,68.5952 788.6644,99.0162 788.6644,137.8512 L788.6644,138.3442 C788.6644,176.7612 818.7584,206.8562 857.1754,206.8562 C885.2984,206.8562 900.3364,194.3132 911.3364,182.0432 L911.9784,181.3272 L892.5214,162.1362 Z" id="Fill-4"></path>
            <path d="M0,17.2599 L0,202.2249 C0,202.2249 16.433,206.2249 58.087,206.2249 C96.504,206.2249 126.599,173.3779 126.599,135.5119 C126.599,97.3779 97.288,68.9649 58.592,68.9649 C42.999,68.9649 32.568,76.1879 32.568,76.1879 L32.568,17.2599 L0,17.2599 Z M32.568,176.9979 L32.568,107.9079 C32.568,106.9159 43.665,97.1939 58.839,97.1939 C79.487,97.1939 94.661,110.9959 94.661,133.7249 L94.661,136.2199 C94.661,159.4689 78.301,177.9979 56.603,177.9979 C47.037,177.9979 32.568,176.9979 32.568,176.9979 Z" id="Fill-6"></path>
            <path d="M348.2889,68.4161 C309.8719,68.4161 279.7779,98.5111 279.7779,136.9281 L279.7779,137.4211 C279.7779,176.2551 310.0889,206.6771 348.7849,206.6771 C358.4399,206.6771 367.0019,204.9291 374.8079,201.6351 L374.8079,202.5721 C374.8079,225.2491 356.6069,239.0711 337.3809,239.0711 C325.0759,239.0711 314.8519,234.2091 304.2269,223.3051 L303.5189,222.5781 L284.0619,241.7691 L284.7039,242.4851 C295.7039,254.7551 310.7419,267.2981 338.8649,267.2981 C377.2819,267.2981 407.3759,237.2031 407.3759,198.7861 L407.3759,75.4161 C407.3759,75.4161 374.8079,68.4161 348.2889,68.4161 M348.5379,178.4481 C327.8889,178.4481 311.7149,160.6451 311.7149,137.9161 L311.7149,137.4211 C311.7149,114.1731 328.0749,96.6431 349.7729,96.6431 C358.9289,96.6431 375.5169,99.2121 375.5169,99.2121 L375.5169,168.0811 C368.8689,174.1801 360.0149,178.4481 348.5379,178.4481" id="Fill-8"></path>
            <path d="M218.9563,70.6325 C217.3063,70.4995 212.5553,70.4235 210.6733,70.4235 C205.3343,70.4235 200.5993,71.0705 196.4583,72.3555 C192.3193,73.6445 188.6833,75.2095 185.5573,77.0465 C182.4263,78.8885 179.7133,80.9105 177.4143,83.1195 C175.1123,85.3265 173.2273,87.3535 171.7573,89.1915 L170.9293,70.4165 L139.7413,70.4165 L139.7413,202.3515 L172.3093,202.3515 L172.3093,133.5235 C172.3093,128.7405 173.1803,124.4165 174.9313,120.5505 C176.6773,116.6875 179.0243,113.3755 181.9693,110.6155 C184.9103,107.8555 188.4083,105.7425 192.4563,104.2675 C196.5023,102.7965 200.7373,102.0585 205.1533,102.0585 C208.2803,102.0585 218.0733,101.9775 218.9563,102.2045 L218.9563,70.6325 Z" id="Fill-11"></path>
            <path d="M777.8995,148.8771 C777.8995,148.8771 778.6115,145.1101 778.6115,139.7351 C778.6115,104.2251 755.9275,68.3951 711.9505,68.3951 C686.4535,68.3951 666.8055,82.5051 655.8085,104.1691 C650.5865,114.0631 647.6555,125.4861 647.6555,137.7531 L647.6555,138.2471 C647.6555,147.9721 649.5915,157.1611 653.0955,165.4671 C662.9735,190.5161 686.5155,206.8621 716.1675,206.8621 C738.4185,206.8621 756.6765,198.4921 770.4355,181.9831 L750.8055,162.7651 C742.0785,171.7211 733.6165,176.5841 724.0555,178.0411 C721.1905,178.7691 718.2055,179.1661 715.1335,179.1661 C714.5915,179.1661 714.0525,179.1491 713.5165,179.1221 C696.5105,178.3691 682.3485,165.8131 677.9215,148.8771 L777.8995,148.8771 Z M713.5165,96.1361 C714.0525,96.1091 714.5915,96.0921 715.1335,96.0921 C715.6755,96.0921 716.2145,96.1091 716.7505,96.1361 C733.7565,96.8891 744.5995,109.4451 749.2645,126.3811 L677.8405,126.3811 C682.0295,109.4451 696.5105,96.8891 713.5165,96.1361 Z" id="Fill-13"></path>
            <path d="M633.8015,170.5651 C621.7365,177.1491 619.7005,176.8911 614.6775,176.8911 C609.1585,176.8911 605.1545,174.9161 602.6695,170.9571 C600.1855,167.0021 598.9435,161.3441 598.9435,153.9821 L598.9435,97.4021 L635.7205,97.4021 L635.7205,70.9061 L598.9435,70.9061 L598.9435,30.9551 L566.3765,30.9551 L566.3765,158.1911 C566.3765,165.3671 567.1115,171.9471 568.5835,177.9261 C570.0565,183.9061 572.4945,189.0121 575.9005,193.2421 C579.3025,197.4791 583.7635,200.7421 589.2835,203.0411 C594.8065,205.3401 601.5215,206.4901 609.4315,206.4901 C617.1075,206.4901 629.6575,206.4831 647.7105,192.9581 L633.8015,170.5651 Z" id="Fill-15"></path>
            <path d="M271.2932,21.2599 C271.2932,33.0009 261.7752,42.5199 250.0332,42.5199 C238.2922,42.5199 228.7732,33.0009 228.7732,21.2599 C228.7732,9.5179 238.2922,-0.0001 250.0332,-0.0001 C261.7752,-0.0001 271.2932,9.5179 271.2932,21.2599" id="Fill-17"></path>
        </g>
    </g>
</svg>